<svg xmlns="http://www.w3.org/2000/svg" width="25.999" height="26" viewBox="0 0 25.999 26" fill="none">
  <path d="M 23.237 0 C 24.327 0 25.258 0.554 25.714 1.397 C 26.185 2.269 26.094 3.373 25.281 4.187 C 25.273 4.194 25.265 4.202 25.257 4.209 L 17 11.942 L 17 19.016 C 17 19.201 16.948 19.383 16.851 19.541 L 13.563 24.868 L 13.564 24.869 C 13.204 25.465 12.606 25.766 12.07 25.898 C 11.525 26.033 10.933 26.027 10.393 25.92 C 9.856 25.813 9.295 25.591 8.845 25.223 C 8.383 24.844 7.999 24.268 7.999 23.521 L 7.999 11.906 L 0.698 4.165 L 0.699 4.164 C -0.095 3.352 -0.182 2.261 0.285 1.397 C 0.737 0.561 1.656 0.01 2.735 0.001 C 2.741 0.001 2.748 0 2.754 0 L 23.237 0 Z M 9.999 23.521 C 9.999 23.525 9.991 23.575 10.114 23.676 C 10.249 23.786 10.481 23.898 10.783 23.958 C 11.081 24.017 11.372 24.011 11.589 23.957 C 11.785 23.908 11.844 23.844 11.852 23.835 L 11.857 23.827 L 15 18.731 L 15 11.51 C 15 11.233 15.115 10.968 15.317 10.779 L 23.873 2.765 C 23.966 2.668 23.991 2.592 23.998 2.545 C 24.005 2.492 23.996 2.425 23.955 2.349 C 23.873 2.197 23.646 2 23.237 2 L 2.762 2 C 2.353 2 2.126 2.197 2.044 2.349 C 2.003 2.425 1.994 2.492 2.001 2.545 C 2.006 2.581 2.022 2.635 2.071 2.701 L 2.132 2.772 L 2.153 2.793 L 9.727 10.823 C 9.902 11.009 9.999 11.255 9.999 11.51 L 9.999 23.521 Z" fill="currentColor" fill-rule="nonzero"/>
</svg>
