<svg xmlns="http://www.w3.org/2000/svg" width="23.545" height="28" viewBox="0 0 23.545 28" fill="none">
  <path d="M 15 0 C 17.761 0 20 2.239 20 5 L 20 6 C 20 6.552 19.552 7 19 7 C 18.448 7 18 6.552 18 6 L 18 5 C 18 3.343 16.657 2 15 2 L 5 2 C 3.343 2 2 3.343 2 5 L 2 23 C 2 24.657 3.343 26 5 26 L 15 26 C 16.657 26 18 24.657 18 23 L 18 22 C 18 21.448 18.448 21 19 21 C 19.552 21 20 21.448 20 22 L 20 23 C 20 25.761 17.761 28 15 28 L 5 28 C 2.239 28 0 25.761 0 23 L 0 5 C 0 2.239 2.239 0 5 0 L 15 0 Z M 17.327 8.26 C 17.736 7.888 18.369 7.919 18.74 8.327 L 23.286 13.332 C 23.632 13.714 23.632 14.296 23.285 14.677 L 18.739 19.673 C 18.368 20.081 17.736 20.111 17.327 19.739 C 16.919 19.368 16.889 18.736 17.261 18.327 L 20.246 15.045 L 11 15.045 C 10.448 15.045 10 14.597 10 14.045 C 10 13.493 10.448 13.045 11 13.045 L 20.324 13.045 L 17.26 9.673 C 16.888 9.264 16.919 8.631 17.327 8.26 Z" fill="currentColor" fill-rule="nonzero"/>
</svg>
