<svg xmlns="http://www.w3.org/2000/svg" width="28.000" height="23.000" viewBox="0 0 28.000 23.000" fill="none">
  <path d="M 0.014 13.835 C 0.105 13.29 0.62 12.923 1.165 13.014 C 5.67 13.768 9.224 17.321 9.986 21.833 C 10.078 22.377 9.711 22.894 9.167 22.986 C 8.622 23.078 8.106 22.711 8.014 22.166 C 7.393 18.492 4.497 15.6 0.835 14.986 C 0.29 14.895 -0.077 14.38 0.014 13.835 Z M 1.1 7.005 C 8.955 7.789 15.214 14.049 15.995 21.901 C 16.05 22.451 15.648 22.94 15.099 22.995 C 14.549 23.05 14.06 22.648 14.005 22.099 C 13.318 15.195 7.809 9.685 0.9 8.995 C 0.351 8.94 -0.05 8.45 0.005 7.9 C 0.06 7.351 0.55 6.95 1.1 7.005 Z M 0.147 19.479 C 0.436 19.008 1.05 18.859 1.521 19.146 C 2.477 19.731 3.28 20.524 3.857 21.485 C 4.142 21.959 3.989 22.573 3.516 22.857 C 3.042 23.142 2.427 22.988 2.143 22.515 C 1.738 21.841 1.171 21.277 0.479 20.854 C 0.007 20.565 -0.141 19.95 0.147 19.479 Z M 24.112 0 C 26.252 0 28 1.721 28 3.855 L 28 18.145 C 28 20.29 26.25 22 24.112 22 L 19 22 C 18.448 22 18 21.552 18 21 C 18 20.448 18.448 20 19 20 L 24.112 20 C 25.168 20 26 19.163 26 18.145 L 26 3.855 C 26 2.844 25.166 2 24.112 2 L 3.888 2 C 2.895 2 2 2.917 2 4 C 2 4.552 1.552 5 1 5 C 0.448 5 0 4.552 0 4 C 0 1.918 1.687 0 3.888 0 L 24.112 0 Z" fill="currentColor" fill-rule="nonzero"/>
</svg>
