<svg xmlns="http://www.w3.org/2000/svg" width="28" height="28" viewBox="0 0 28 28" fill="none">
  <path d="M 1 0 C 1.552 0 2 0.448 2 1 L 2 25 C 2 25.552 2.448 26 3 26 L 27 26 C 27.552 26 28 26.448 28 27 C 28 27.552 27.552 28 27 28 L 3 28 C 1.343 28 0 26.657 0 25 L 0 1 C 0 0.448 0.448 0 1 0 Z M 24.844 1.745 C 25.679 1.644 26.434 2.251 26.517 3.088 L 26.989 7.897 C 27.043 8.447 26.641 8.936 26.092 8.99 C 25.542 9.044 25.052 8.642 24.998 8.093 L 24.717 5.227 L 18.146 15.085 C 17.646 15.834 16.604 15.977 15.921 15.392 L 10.453 10.705 L 5.941 23.336 C 5.756 23.856 5.184 24.127 4.664 23.941 C 4.144 23.756 3.873 23.184 4.059 22.664 L 8.569 10.032 C 9.041 8.712 10.69 8.274 11.755 9.187 L 16.794 13.506 L 23.155 3.963 L 20.118 4.329 C 19.57 4.395 19.072 4.004 19.006 3.456 C 18.94 2.908 19.331 2.41 19.879 2.344 L 24.844 1.745 Z" fill="currentColor" fill-rule="nonzero"/>
</svg>
