<svg xmlns="http://www.w3.org/2000/svg" width="28" height="28" viewBox="0 0 28 28" fill="none">
  <path d="M 14.999 1 C 14.999 0.448 14.551 0 13.999 0 C 13.446 0 12.999 0.448 12.999 1 L 12.999 3 C 12.999 3.552 13.446 4 13.999 4 C 14.551 4 14.999 3.552 14.999 3 L 14.999 1 Z" fill="currentColor" fill-rule="nonzero"/>
  <path d="M 0 14 C 0 13.448 0.448 13 1 13 L 3 13 C 3.552 13 4 13.448 4 14 C 4 14.552 3.552 15 3 15 L 1 15 C 0.448 15 0 14.552 0 14 Z" fill="currentColor" fill-rule="nonzero"/>
  <path d="M 24 14 C 24 13.448 24.448 13 25 13 L 27 13 C 27.552 13 28 13.448 28 14 C 28 14.552 27.552 15 27 15 L 25 15 C 24.448 15 24 14.552 24 14 Z" fill="currentColor" fill-rule="nonzero"/>
  <path d="M 24.158 4.305 C 24.542 4.703 24.531 5.336 24.133 5.719 L 22.695 7.109 C 22.297 7.492 21.664 7.481 21.281 7.084 C 20.897 6.687 20.908 6.054 21.305 5.67 L 22.744 4.281 C 23.141 3.897 23.774 3.908 24.158 4.305 Z" fill="currentColor" fill-rule="nonzero"/>
  <path d="M 24.133 21.67 C 24.531 22.054 24.542 22.687 24.158 23.084 C 23.774 23.481 23.141 23.492 22.744 23.109 L 21.305 21.719 C 20.908 21.336 20.897 20.703 21.281 20.305 C 21.664 19.908 22.297 19.897 22.695 20.281 L 24.133 21.67 Z" fill="currentColor" fill-rule="nonzero"/>
  <path d="M 3.281 4.305 C 2.897 4.703 2.908 5.336 3.305 5.719 L 4.744 7.109 C 5.141 7.492 5.774 7.481 6.158 7.084 C 6.542 6.687 6.531 6.054 6.133 5.67 L 4.695 4.281 C 4.297 3.897 3.664 3.908 3.281 4.305 Z" fill="currentColor" fill-rule="nonzero"/>
  <path d="M 3.305 21.67 C 2.908 22.054 2.897 22.687 3.281 23.084 C 3.664 23.481 4.297 23.492 4.695 23.109 L 6.133 21.719 C 6.531 21.336 6.542 20.703 6.158 20.305 C 5.774 19.908 5.141 19.897 4.744 20.281 L 3.305 21.67 Z" fill="currentColor" fill-rule="nonzero"/>
  <path d="M 13.938 5 C 18.352 4.965 22 8.432 22 12.777 C 22 15.114 20.933 17.196 19.281 18.613 C 18.523 19.266 18.098 20.189 18.098 21.15 C 18.098 21.381 18.056 21.6 17.98 21.801 C 17.993 21.865 18 21.932 18 22 L 18 25.166 C 18 26.761 16.675 28 15.107 28 L 12.893 28 C 11.325 28 10 26.761 10 25.166 L 10 22 C 10 21.94 10.005 21.88 10.016 21.823 C 9.934 21.616 9.889 21.39 9.889 21.15 C 9.889 20.189 9.465 19.266 8.707 18.613 C 7.058 17.2 6.008 15.124 6 12.806 L 8.624 10.225 C 8.222 11.005 7.997 11.88 8 12.799 C 8.005 14.502 8.774 16.038 10.009 17.095 L 10.01 17.096 C 11.161 18.086 11.844 19.497 11.887 21 L 16.1 21 C 16.143 19.497 16.826 18.086 17.977 17.096 L 17.978 17.095 C 19.222 16.029 20 14.487 20 12.777 C 20 9.601 17.317 6.973 13.954 7 C 12.974 7.008 12.052 7.243 11.241 7.652 L 13.938 5 Z M 16 23 L 12 23 L 12 25.166 C 12 25.598 12.369 26 12.893 26 L 15.107 26 C 15.631 26 16 25.598 16 25.166 L 16 23 Z" fill="currentColor" fill-rule="evenodd"/>
  <path d="M 11.241 7.652 L 13.938 5 C 9.58 5.035 5.985 8.507 6 12.806 L 8.624 10.225 C 9.19 9.129 10.109 8.222 11.241 7.652 Z" fill="currentColor" fill-rule="evenodd"/>
</svg>
